<svg width="1440" height="1024" viewBox="0 0 1440 1024" fill="none" xmlns="http://www.w3.org/2000/svg">
<rect width="1440" height="1024" fill="#E8E4E1"/>
<path d="M243.714 827.001C243.714 858.057 226.161 876 189.006 876H146V867.949H189.006C203.926 867.949 215.043 864.498 222.943 857.367C229.964 850.465 233.475 840.344 233.475 827.001V755.689C233.475 729.004 219.139 714.742 189.006 714.742H146V706.46H189.006C207.437 706.46 221.48 711.061 230.842 720.263C239.326 728.314 243.714 740.276 243.714 755.689V827.001ZM146 720.032H156.239V862.428H146V720.032ZM163.261 862.428V720.032H189.006C202.171 720.032 211.825 723.023 217.384 728.774C223.528 734.525 226.453 743.497 226.453 755.689V827.001C226.453 839.194 223.528 848.165 217.384 853.916C211.533 859.667 202.171 862.428 189.006 862.428H163.261ZM173.5 728.314V854.376H189.006C196.027 854.376 202.756 853.916 207.73 850.235C212.41 846.555 215.921 839.654 215.921 827.001V755.689C215.921 743.037 212.41 736.135 207.73 732.455C202.756 728.774 196.027 728.314 189.006 728.314H173.5Z" fill="white"/>
<path d="M270.805 714.742V867.949H349.796V876H260.566V706.46H349.796V714.742H270.805ZM277.827 720.032H349.796V728.314H288.066V780.303H349.796V788.585H277.827V720.032ZM277.827 793.876H349.796V802.157H288.066V854.376H349.796V862.428H277.827V793.876Z" fill="white"/>
<path d="M471.813 765.581H461.281V754.769C461.281 728.314 447.53 714.742 420.615 714.742C407.158 714.742 396.918 718.192 389.897 724.863C383.168 731.995 379.657 741.886 379.657 754.769V827.691C379.657 844.254 385.216 854.606 393.115 860.357C401.014 866.108 411.253 867.949 420.615 867.949C429.977 867.949 439.924 866.108 447.823 860.357C455.722 854.606 461.281 844.254 461.281 827.691V816.65H471.813V827.691C471.813 842.644 467.717 854.146 459.233 862.428C453.089 868.639 441.679 876 420.615 876C410.083 876 402.184 874.16 395.748 871.399C389.312 868.869 384.923 865.418 381.705 862.428C373.513 854.376 369.418 842.874 369.418 827.691V754.769C369.418 739.816 373.513 728.084 381.705 720.032C384.923 717.042 389.312 713.591 395.748 710.831C402.184 708.3 410.083 706.46 420.615 706.46C441.679 706.46 453.089 713.821 459.233 720.032C467.717 728.314 471.813 739.816 471.813 754.769V765.581ZM454.552 765.581H444.02V754.769C444.02 741.656 440.216 734.755 435.536 731.535C430.562 728.314 424.418 728.314 420.615 728.314C416.227 728.314 410.668 728.314 405.695 731.535C400.721 734.755 396.918 741.656 396.918 754.769V827.691C396.918 837.583 399.258 844.714 403.647 849.085C405.695 851.616 410.083 854.376 420.615 854.376C431.147 854.376 435.243 851.616 437.583 849.085C441.972 844.714 444.02 837.583 444.02 827.691V816.65H454.552V827.691C454.552 850.926 443.142 862.428 420.615 862.428C398.088 862.428 386.679 850.926 386.679 827.691V754.769C386.679 731.535 398.088 720.032 420.615 720.032C443.142 720.032 454.552 731.535 454.552 754.769V765.581Z" fill="white"/>
<path d="M591.521 827.231C591.521 842.414 587.425 853.916 579.234 861.968C576.016 864.958 571.92 868.409 565.484 870.939C559.047 873.7 550.856 875.54 540.324 875.54C519.259 875.54 507.557 868.179 501.414 861.968C493.222 853.916 489.126 842.414 489.126 827.231V754.078C489.126 739.126 493.222 727.624 501.414 719.342C507.557 713.131 519.259 706 540.324 706C561.388 706 573.09 713.131 579.234 719.342C587.425 727.624 591.521 739.126 591.521 754.078V827.231ZM581.282 754.078C581.282 728.084 567.239 714.051 540.324 714.051C513.408 714.051 499.366 728.084 499.366 754.078V827.231C499.366 853.226 513.701 867.489 540.324 867.489C566.946 867.489 581.282 853.226 581.282 827.231V754.078ZM574.26 827.231C574.26 850.465 562.851 861.968 540.324 861.968C517.797 861.968 506.387 850.465 506.387 827.231V754.078C506.387 742.116 509.313 733.375 515.164 727.854C520.43 722.333 528.914 719.572 540.324 719.572C551.733 719.572 560.217 722.333 565.484 727.854C571.335 733.375 574.26 742.116 574.26 754.078V827.231ZM564.021 754.078C564.021 740.966 560.217 734.065 555.244 730.844C550.271 727.624 544.127 727.624 540.324 727.624C535.935 727.624 530.377 727.624 525.403 730.844C520.43 734.065 516.626 740.966 516.626 754.078V827.231C516.626 840.804 520.43 847.245 525.403 850.466C530.377 853.686 535.935 853.916 540.324 853.916C544.127 853.916 550.271 853.686 555.244 850.466C560.217 847.245 564.021 840.804 564.021 827.231V754.078Z" fill="white"/>
<path d="M717.803 876H707.271V825.851C707.271 814.579 703.175 805.608 694.691 798.936C691.18 796.406 687.085 794.336 682.404 792.725C698.787 787.894 706.978 775.242 706.978 754.769C706.978 727.394 693.228 714.742 662.51 714.742H617.749V706.46H662.51C699.665 706.46 717.218 723.253 717.218 754.769C717.218 770.411 712.83 782.373 704.345 790.425C704.053 790.655 703.468 791.115 703.175 791.575C702.59 792.035 702.005 792.495 701.42 792.725C711.952 800.777 717.803 811.819 717.803 825.851V876ZM617.749 720.032H627.988V876H617.749V720.032ZM635.009 789.735V720.032H662.51C689.132 720.032 699.957 730.154 699.957 754.769C699.957 779.613 689.132 789.735 662.51 789.735H635.009ZM645.249 728.314V781.683H662.51C669.824 781.683 675.09 780.993 678.015 779.613C680.648 778.233 682.404 777.083 683.281 776.392C687.67 772.022 689.718 764.89 689.718 754.769C689.718 743.497 687.377 736.825 682.989 732.915C678.308 729.234 671.579 728.314 662.51 728.314H645.249ZM700.542 876H690.01V825.851C690.01 810.899 680.941 803.537 662.51 803.537H645.249V876H635.009V795.256H662.51C686.792 795.256 700.542 806.298 700.542 825.851V876Z" fill="white"/>
<path d="M792.695 706.46H814.637L864.664 876H853.84L806.738 716.122H800.302L753.2 876H742.668L792.695 706.46ZM803.52 729.464L828.68 815.269H778.068L803.52 729.464ZM803.52 765.581L791.233 806.988H815.807L803.52 765.581ZM771.046 876H760.222L776.605 820.56H830.435L846.818 876H836.286L822.244 828.842H784.796L771.046 876Z" fill="white"/>
<path d="M995.949 714.742H873.953V706.46H995.949V714.742ZM873.953 720.032H931.587V876H921.055V728.314H873.953V720.032ZM938.316 876V720.032H995.949V728.314H948.848V876H938.316Z" fill="white"/>
<path d="M1020.51 875.77V706.23H1030.75V875.77H1020.51ZM1048.01 875.77H1037.77V706.23H1048.01V875.77Z" fill="white"/>
<path d="M1173.26 827.231C1173.26 842.414 1169.17 853.916 1160.98 861.968C1157.76 864.958 1153.66 868.409 1147.23 870.939C1140.79 873.7 1132.6 875.54 1122.07 875.54C1101 875.54 1089.3 868.179 1083.16 861.968C1074.96 853.916 1070.87 842.414 1070.87 827.231V754.078C1070.87 739.126 1074.96 727.624 1083.16 719.342C1089.3 713.131 1101 706 1122.07 706C1143.13 706 1154.83 713.131 1160.98 719.342C1169.17 727.624 1173.26 739.126 1173.26 754.078V827.231ZM1163.02 754.078C1163.02 728.084 1148.98 714.051 1122.07 714.051C1095.15 714.051 1081.11 728.084 1081.11 754.078V827.231C1081.11 853.226 1095.44 867.489 1122.07 867.489C1148.69 867.489 1163.02 853.226 1163.02 827.231V754.078ZM1156 827.231C1156 850.465 1144.59 861.968 1122.07 861.968C1099.54 861.968 1088.13 850.465 1088.13 827.231V754.078C1088.13 742.116 1091.06 733.375 1096.91 727.854C1102.17 722.333 1110.66 719.572 1122.07 719.572C1133.48 719.572 1141.96 722.333 1147.23 727.854C1153.08 733.375 1156 742.116 1156 754.078V827.231ZM1145.76 754.078C1145.76 740.966 1141.96 734.065 1136.99 730.844C1132.01 727.624 1125.87 727.624 1122.07 727.624C1117.68 727.624 1112.12 727.624 1107.15 730.844C1102.17 734.065 1098.37 740.966 1098.37 754.078V827.231C1098.37 840.804 1102.17 847.245 1107.15 850.466C1112.12 853.686 1117.68 853.916 1122.07 853.916C1125.87 853.916 1132.01 853.686 1136.99 850.466C1141.96 847.245 1145.76 840.804 1145.76 827.231V754.078Z" fill="white"/>
<path d="M1275.74 706V850.696L1205.82 714.281H1199.67V875.54H1189.43V706H1212.55L1265.21 808.598V706H1275.74ZM1276.62 867.258H1282.47V706H1293V875.54H1269.6L1216.94 772.942V875.54H1206.7V730.844L1276.62 867.258Z" fill="white"/>
<path d="M236.384 143.263V337.321H227V143.263H236.384ZM299.927 237.264H242.819V143.263H252.203V228.048H290.275V143.263H299.927V237.264ZM306.094 337.321V143.263H315.746V337.321H306.094ZM242.819 243.584H299.927V337.321H290.275V252.799H252.203V337.321H242.819V243.584Z" fill="white"/>
<path d="M430.547 281.763C430.547 299.142 426.793 312.307 419.286 321.523C416.337 324.946 412.583 328.895 406.685 331.792C400.786 334.951 393.279 337.058 383.627 337.058C364.323 337.058 353.598 328.632 347.968 321.523C340.46 312.307 336.707 299.142 336.707 281.763V198.031C336.707 180.916 340.46 167.751 347.968 158.272C353.598 151.163 364.323 143 383.627 143C402.931 143 413.656 151.163 419.286 158.272C426.793 167.751 430.547 180.916 430.547 198.031V281.763ZM421.163 198.031C421.163 168.278 408.293 152.216 383.627 152.216C358.96 152.216 346.091 168.278 346.091 198.031V281.763C346.091 311.517 359.228 327.842 383.627 327.842C408.025 327.842 421.163 311.517 421.163 281.763V198.031ZM414.728 281.763C414.728 308.357 404.272 321.523 383.627 321.523C362.982 321.523 352.526 308.357 352.526 281.763V198.031C352.526 184.339 355.207 174.334 360.569 168.014C365.395 161.695 373.17 158.535 383.627 158.535C394.083 158.535 401.859 161.695 406.685 168.014C412.047 174.334 414.728 184.339 414.728 198.031V281.763ZM405.344 198.031C405.344 183.023 401.859 175.124 397.301 171.437C392.743 167.751 387.112 167.751 383.627 167.751C379.605 167.751 374.511 167.751 369.953 171.437C365.395 175.124 361.91 183.023 361.91 198.031V281.763C361.91 297.298 365.395 304.671 369.953 308.357C374.511 312.044 379.605 312.307 383.627 312.307C387.112 312.307 392.743 312.044 397.301 308.357C401.859 304.671 405.344 297.298 405.344 281.763V198.031Z" fill="white"/>
<path d="M1088.84 441.679H1111.09V635.737H1101.71V451.158H1096.08L1049.16 612.039L1001.97 451.158H996.341V635.737H986.957V441.679H1009.21L1049.16 578.336L1088.84 441.679ZM1012.16 635.737H1002.78V476.172L1049.16 634.683L1095.27 476.172V635.737H1085.89V542.789L1058.54 635.737H1039.51L1012.16 542.789V635.737Z" fill="white"/>
<path d="M1140.61 451.421V626.784H1213V636H1131.23V441.942H1213V451.421H1140.61ZM1147.04 457.477H1213V466.956H1156.43V526.464H1213V535.943H1147.04V457.477ZM1147.04 541.999H1213V551.478H1156.43V611.249H1213V620.465H1147.04V541.999Z" fill="white"/>
</svg>
