<svg width="1440" height="1024" viewBox="0 0 1440 1024" fill="none" xmlns="http://www.w3.org/2000/svg">
<rect width="1440" height="1024" fill="#E8E4E1"/>
<path d="M243.714 788.001C243.714 819.057 226.161 837 189.006 837H146V828.949H189.006C203.926 828.949 215.043 825.498 222.943 818.367C229.964 811.465 233.475 801.344 233.475 788.001V716.689C233.475 690.004 219.139 675.742 189.006 675.742H146V667.46H189.006C207.437 667.46 221.48 672.061 230.842 681.263C239.326 689.314 243.714 701.276 243.714 716.689V788.001ZM146 681.032H156.239V823.428H146V681.032ZM163.261 823.428V681.032H189.006C202.171 681.032 211.825 684.023 217.384 689.774C223.528 695.525 226.453 704.497 226.453 716.689V788.001C226.453 800.194 223.528 809.165 217.384 814.916C211.533 820.667 202.171 823.428 189.006 823.428H163.261ZM173.5 689.314V815.376H189.006C196.027 815.376 202.756 814.916 207.73 811.235C212.41 807.555 215.921 800.654 215.921 788.001V716.689C215.921 704.037 212.41 697.135 207.73 693.455C202.756 689.774 196.027 689.314 189.006 689.314H173.5Z" fill="white"/>
<path d="M270.805 675.742V828.949H349.796V837H260.566V667.46H349.796V675.742H270.805ZM277.827 681.032H349.796V689.314H288.066V741.303H349.796V749.585H277.827V681.032ZM277.827 754.876H349.796V763.157H288.066V815.376H349.796V823.428H277.827V754.876Z" fill="white"/>
<path d="M471.813 726.581H461.281V715.769C461.281 689.314 447.53 675.742 420.615 675.742C407.158 675.742 396.918 679.192 389.897 685.863C383.168 692.995 379.657 702.886 379.657 715.769V788.691C379.657 805.254 385.216 815.606 393.115 821.357C401.014 827.108 411.253 828.949 420.615 828.949C429.977 828.949 439.924 827.108 447.823 821.357C455.722 815.606 461.281 805.254 461.281 788.691V777.65H471.813V788.691C471.813 803.644 467.717 815.146 459.233 823.428C453.089 829.639 441.679 837 420.615 837C410.083 837 402.184 835.16 395.748 832.399C389.312 829.869 384.923 826.418 381.705 823.428C373.513 815.376 369.418 803.874 369.418 788.691V715.769C369.418 700.816 373.513 689.084 381.705 681.032C384.923 678.042 389.312 674.591 395.748 671.831C402.184 669.3 410.083 667.46 420.615 667.46C441.679 667.46 453.089 674.821 459.233 681.032C467.717 689.314 471.813 700.816 471.813 715.769V726.581ZM454.552 726.581H444.02V715.769C444.02 702.656 440.216 695.755 435.536 692.535C430.562 689.314 424.418 689.314 420.615 689.314C416.227 689.314 410.668 689.314 405.695 692.535C400.721 695.755 396.918 702.656 396.918 715.769V788.691C396.918 798.583 399.258 805.714 403.647 810.085C405.695 812.616 410.083 815.376 420.615 815.376C431.147 815.376 435.243 812.616 437.583 810.085C441.972 805.714 444.02 798.583 444.02 788.691V777.65H454.552V788.691C454.552 811.926 443.142 823.428 420.615 823.428C398.088 823.428 386.679 811.926 386.679 788.691V715.769C386.679 692.535 398.088 681.032 420.615 681.032C443.142 681.032 454.552 692.535 454.552 715.769V726.581Z" fill="white"/>
<path d="M591.521 788.231C591.521 803.414 587.425 814.916 579.234 822.968C576.016 825.958 571.92 829.409 565.484 831.939C559.047 834.7 550.856 836.54 540.324 836.54C519.259 836.54 507.557 829.179 501.414 822.968C493.222 814.916 489.126 803.414 489.126 788.231V715.078C489.126 700.126 493.222 688.624 501.414 680.342C507.557 674.131 519.259 667 540.324 667C561.388 667 573.09 674.131 579.234 680.342C587.425 688.624 591.521 700.126 591.521 715.078V788.231ZM581.282 715.078C581.282 689.084 567.239 675.051 540.324 675.051C513.408 675.051 499.366 689.084 499.366 715.078V788.231C499.366 814.226 513.701 828.489 540.324 828.489C566.946 828.489 581.282 814.226 581.282 788.231V715.078ZM574.26 788.231C574.26 811.465 562.851 822.968 540.324 822.968C517.797 822.968 506.387 811.465 506.387 788.231V715.078C506.387 703.116 509.313 694.375 515.164 688.854C520.43 683.333 528.914 680.572 540.324 680.572C551.733 680.572 560.217 683.333 565.484 688.854C571.335 694.375 574.26 703.116 574.26 715.078V788.231ZM564.021 715.078C564.021 701.966 560.217 695.065 555.244 691.844C550.271 688.624 544.127 688.624 540.324 688.624C535.935 688.624 530.377 688.624 525.403 691.844C520.43 695.065 516.626 701.966 516.626 715.078V788.231C516.626 801.804 520.43 808.245 525.403 811.466C530.377 814.686 535.935 814.916 540.324 814.916C544.127 814.916 550.271 814.686 555.244 811.466C560.217 808.245 564.021 801.804 564.021 788.231V715.078Z" fill="white"/>
<path d="M717.803 837H707.271V786.851C707.271 775.579 703.175 766.608 694.691 759.936C691.18 757.406 687.085 755.336 682.404 753.725C698.787 748.894 706.978 736.242 706.978 715.769C706.978 688.394 693.228 675.742 662.51 675.742H617.749V667.46H662.51C699.665 667.46 717.218 684.253 717.218 715.769C717.218 731.411 712.83 743.373 704.345 751.425C704.053 751.655 703.468 752.115 703.175 752.575C702.59 753.035 702.005 753.495 701.42 753.725C711.952 761.777 717.803 772.819 717.803 786.851V837ZM617.749 681.032H627.988V837H617.749V681.032ZM635.009 750.735V681.032H662.51C689.132 681.032 699.957 691.154 699.957 715.769C699.957 740.613 689.132 750.735 662.51 750.735H635.009ZM645.249 689.314V742.683H662.51C669.824 742.683 675.09 741.993 678.015 740.613C680.648 739.233 682.404 738.083 683.281 737.392C687.67 733.022 689.718 725.89 689.718 715.769C689.718 704.497 687.377 697.825 682.989 693.915C678.308 690.234 671.579 689.314 662.51 689.314H645.249ZM700.542 837H690.01V786.851C690.01 771.899 680.941 764.537 662.51 764.537H645.249V837H635.009V756.256H662.51C686.792 756.256 700.542 767.298 700.542 786.851V837Z" fill="white"/>
<path d="M792.695 667.46H814.637L864.664 837H853.84L806.738 677.122H800.302L753.2 837H742.668L792.695 667.46ZM803.52 690.464L828.68 776.269H778.068L803.52 690.464ZM803.52 726.581L791.233 767.988H815.807L803.52 726.581ZM771.046 837H760.222L776.605 781.56H830.435L846.818 837H836.286L822.244 789.842H784.796L771.046 837Z" fill="white"/>
<path d="M995.949 675.742H873.953V667.46H995.949V675.742ZM873.953 681.032H931.587V837H921.055V689.314H873.953V681.032ZM938.316 837V681.032H995.949V689.314H948.848V837H938.316Z" fill="white"/>
<path d="M1020.51 836.77V667.23H1030.75V836.77H1020.51ZM1048.01 836.77H1037.77V667.23H1048.01V836.77Z" fill="white"/>
<path d="M1173.26 788.231C1173.26 803.414 1169.17 814.916 1160.98 822.968C1157.76 825.958 1153.66 829.409 1147.23 831.939C1140.79 834.7 1132.6 836.54 1122.07 836.54C1101 836.54 1089.3 829.179 1083.16 822.968C1074.96 814.916 1070.87 803.414 1070.87 788.231V715.078C1070.87 700.126 1074.96 688.624 1083.16 680.342C1089.3 674.131 1101 667 1122.07 667C1143.13 667 1154.83 674.131 1160.98 680.342C1169.17 688.624 1173.26 700.126 1173.26 715.078V788.231ZM1163.02 715.078C1163.02 689.084 1148.98 675.051 1122.07 675.051C1095.15 675.051 1081.11 689.084 1081.11 715.078V788.231C1081.11 814.226 1095.44 828.489 1122.07 828.489C1148.69 828.489 1163.02 814.226 1163.02 788.231V715.078ZM1156 788.231C1156 811.465 1144.59 822.968 1122.07 822.968C1099.54 822.968 1088.13 811.465 1088.13 788.231V715.078C1088.13 703.116 1091.06 694.375 1096.91 688.854C1102.17 683.333 1110.66 680.572 1122.07 680.572C1133.48 680.572 1141.96 683.333 1147.23 688.854C1153.08 694.375 1156 703.116 1156 715.078V788.231ZM1145.76 715.078C1145.76 701.966 1141.96 695.065 1136.99 691.844C1132.01 688.624 1125.87 688.624 1122.07 688.624C1117.68 688.624 1112.12 688.624 1107.15 691.844C1102.17 695.065 1098.37 701.966 1098.37 715.078V788.231C1098.37 801.804 1102.17 808.245 1107.15 811.466C1112.12 814.686 1117.68 814.916 1122.07 814.916C1125.87 814.916 1132.01 814.686 1136.99 811.466C1141.96 808.245 1145.76 801.804 1145.76 788.231V715.078Z" fill="white"/>
<path d="M1275.74 667V811.696L1205.82 675.281H1199.67V836.54H1189.43V667H1212.55L1265.21 769.598V667H1275.74ZM1276.62 828.258H1282.47V667H1293V836.54H1269.6L1216.94 733.942V836.54H1206.7V691.844L1276.62 828.258Z" fill="white"/>
<path d="M236.384 98.2633V292.321H227V98.2633H236.384ZM299.927 192.264H242.819V98.2633H252.203V183.048H290.275V98.2633H299.927V192.264ZM306.094 292.321V98.2633H315.746V292.321H306.094ZM242.819 198.584H299.927V292.321H290.275V207.799H252.203V292.321H242.819V198.584Z" fill="white"/>
<path d="M430.547 236.763C430.547 254.142 426.793 267.307 419.286 276.523C416.337 279.946 412.583 283.895 406.685 286.792C400.786 289.951 393.279 292.058 383.627 292.058C364.323 292.058 353.598 283.632 347.968 276.523C340.46 267.307 336.707 254.142 336.707 236.763V153.031C336.707 135.916 340.46 122.751 347.968 113.272C353.598 106.163 364.323 98 383.627 98C402.931 98 413.656 106.163 419.286 113.272C426.793 122.751 430.547 135.916 430.547 153.031V236.763ZM421.163 153.031C421.163 123.278 408.293 107.216 383.627 107.216C358.96 107.216 346.091 123.278 346.091 153.031V236.763C346.091 266.517 359.228 282.842 383.627 282.842C408.025 282.842 421.163 266.517 421.163 236.763V153.031ZM414.728 236.763C414.728 263.357 404.272 276.523 383.627 276.523C362.982 276.523 352.526 263.357 352.526 236.763V153.031C352.526 139.339 355.207 129.334 360.569 123.014C365.395 116.695 373.17 113.535 383.627 113.535C394.083 113.535 401.859 116.695 406.685 123.014C412.047 129.334 414.728 139.339 414.728 153.031V236.763ZM405.344 153.031C405.344 138.023 401.859 130.124 397.301 126.437C392.743 122.751 387.112 122.751 383.627 122.751C379.605 122.751 374.511 122.751 369.953 126.437C365.395 130.124 361.91 138.023 361.91 153.031V236.763C361.91 252.298 365.395 259.671 369.953 263.357C374.511 267.044 379.605 267.307 383.627 267.307C387.112 267.307 392.743 267.044 397.301 263.357C401.859 259.671 405.344 252.298 405.344 236.763V153.031Z" fill="white"/>
<path d="M1088.84 396.679H1111.09V590.737H1101.71V406.158H1096.08L1049.16 567.039L1001.97 406.158H996.341V590.737H986.957V396.679H1009.21L1049.16 533.336L1088.84 396.679ZM1012.16 590.737H1002.78V431.172L1049.16 589.683L1095.27 431.172V590.737H1085.89V497.789L1058.54 590.737H1039.51L1012.16 497.789V590.737Z" fill="white"/>
<path d="M1140.61 406.421V581.784H1213V591H1131.23V396.942H1213V406.421H1140.61ZM1147.04 412.477H1213V421.956H1156.43V481.464H1213V490.943H1147.04V412.477ZM1147.04 496.999H1213V506.478H1156.43V566.249H1213V575.465H1147.04V496.999Z" fill="white"/>
</svg>
