<svg width="61" height="61" viewBox="0 0 61 61" fill="none" xmlns="http://www.w3.org/2000/svg">
<g clip-path="url(#clip0_1_4)">
<path d="M54.4917 12.7888V11.5096C54.4917 9.16873 52.5873 7.2642 50.2463 7.2642H45.1108C42.77 7.2642 40.8655 9.16861 40.8655 11.5096V12.6264H25.7898V9.43756C25.7898 6.30138 23.2384 3.74997 20.1022 3.74997H11.8727C8.73654 3.74997 6.18513 6.30138 6.18513 9.43756V13.024C6.18513 13.095 6.18935 13.1647 6.19579 13.234C2.86637 14.5318 0.5 17.7704 0.5 21.5534V49.6815C0.5 53.8549 3.89516 57.25 8.06857 57.25H52.9315C57.105 57.25 60.5001 53.8549 60.5001 49.6815V20.1949C60.5001 16.5562 57.9191 13.5098 54.4917 12.7888ZM45.4252 11.8239H49.932V12.6262H45.4252V11.8239ZM10.7448 9.43744C10.7448 8.82596 11.2612 8.30951 11.8727 8.30951H20.1025C20.7137 8.30951 21.2304 8.82596 21.2304 9.43744V12.6262H10.7448V9.43744ZM52.9315 52.6903H8.06857C6.40943 52.6904 5.05977 51.3407 5.05977 49.6815V21.5534C5.05977 19.1453 7.01904 17.1859 9.42724 17.1859H52.9315C54.5907 17.1859 55.9403 18.5355 55.9403 20.1947V49.6815H55.9405C55.9405 51.3406 54.5907 52.6903 52.9315 52.6903Z" fill="currentColor"/>
<path d="M30.5001 22.1067C23.3408 22.1067 17.5166 27.931 17.5166 35.0902C17.5166 42.2494 23.3408 48.0738 30.5001 48.0738C37.6593 48.0738 43.4835 42.2495 43.4835 35.0903C43.4835 27.9311 37.6592 22.1067 30.5001 22.1067ZM30.5001 43.5139C25.8552 43.5139 22.0763 39.7349 22.0763 35.0901C22.0763 30.4452 25.8552 26.6663 30.5001 26.6663C35.1449 26.6663 38.9239 30.4452 38.9239 35.0901C38.9239 39.7349 35.1449 43.5139 30.5001 43.5139Z" fill="currentColor"/>
<path d="M49.761 20.2686C48.2779 20.2686 47.0712 21.4753 47.0712 22.9586C47.0712 24.4417 48.2779 25.6484 49.761 25.6484C51.2443 25.6484 52.451 24.4417 52.451 22.9586C52.451 21.4752 51.2444 20.2686 49.761 20.2686Z" fill="currentColor"/>
</g>
<defs>
<clipPath id="clip0_1_4">
<rect width="60" height="60" fill="white" transform="translate(0.5 0.5)"/>
</clipPath>
</defs>
</svg>
