<svg width="61" height="61" viewBox="0 0 61 61" fill="none" xmlns="http://www.w3.org/2000/svg">
<g clip-path="url(#clip0_75_176)">
<path d="M0.53833 49.1446C0.53833 52.2646 1.63833 54.9046 3.83833 57.0646C6.03833 59.2246 8.69833 60.3246 11.8183 60.3646H49.3183C52.3983 60.3646 55.0383 59.2646 57.2383 57.0646C59.4383 54.8646 60.5383 52.2246 60.5383 49.1446V11.6446C60.5383 8.52456 59.4383 5.86456 57.2383 3.66456C55.0383 1.46456 52.3983 0.364563 49.3183 0.364563H11.8183C8.69833 0.364563 6.03833 1.46456 3.83833 3.66456C1.63833 5.86456 0.53833 8.52456 0.53833 11.6446L0.53833 49.1446ZM8.03833 49.1446V11.6446C8.03833 10.6046 8.39833 9.72456 9.11833 9.00456C9.83833 8.28456 10.7383 7.90456 11.8183 7.86456H49.3183C50.3183 7.86456 51.1983 8.24456 51.9583 9.00456C52.7183 9.76456 53.0783 10.6446 53.0383 11.6446V49.1446C53.0383 50.1846 52.6783 51.0646 51.9583 51.7846C51.2383 52.5046 50.3583 52.8646 49.3183 52.8646H11.8183C10.7783 52.8646 9.87833 52.5046 9.11833 51.7846C8.35833 51.0646 7.99833 50.1846 8.03833 49.1446ZM11.8183 45.3646C11.8183 46.4046 12.1783 47.3046 12.8983 48.0646C13.6183 48.8246 14.4983 49.1846 15.5383 49.1446H45.5383C46.5783 49.1446 47.4583 48.7846 48.1783 48.0646C48.8983 47.3446 49.2783 46.4446 49.3183 45.3646V43.6246C49.0383 43.0646 48.3383 41.3846 47.2183 38.5846C46.0983 35.7846 45.0983 33.5446 44.2183 31.8646C43.3383 30.1846 42.5383 28.8646 41.8183 27.9046C41.1383 27.1846 40.4383 26.8046 39.7183 26.7646C38.9983 26.7246 38.2783 26.9646 37.5583 27.4846C36.8383 28.0046 36.1183 28.7046 35.3983 29.5846C34.6783 30.4646 33.9383 31.4446 33.1783 32.5246C32.4183 33.6046 31.6983 34.6646 31.0183 35.7046C30.3383 36.7446 29.6183 37.7446 28.8583 38.7046C28.0983 39.6646 27.4183 40.4046 26.8183 40.9246C26.2183 41.4446 25.5383 41.7246 24.7783 41.7646C24.0583 41.7646 23.0183 40.8646 21.6583 39.0646C21.4583 38.8246 21.1583 38.4446 20.7583 37.9246C19.3583 36.0446 18.3583 34.9046 17.7583 34.5046C16.7983 33.8646 16.0583 34.0846 15.5383 35.1646C15.2583 35.8046 14.6783 37.2046 13.7983 39.3646C12.9183 41.5246 12.2583 43.1246 11.8183 44.1646V45.3646ZM11.8183 17.2846C11.8183 18.8446 12.3583 20.1646 13.4383 21.2446C14.5183 22.3246 15.8383 22.8646 17.3983 22.8646C18.9583 22.8646 20.2983 22.3246 21.4183 21.2446C22.5383 20.1646 23.0783 18.8446 23.0383 17.2846C22.9983 15.7246 22.4583 14.3846 21.4183 13.2646C20.3783 12.1446 19.0383 11.6046 17.3983 11.6446C15.7583 11.6846 14.4383 12.2246 13.4383 13.2646C12.4383 14.3046 11.8983 15.6446 11.8183 17.2846Z" fill="#3f3f3f"/>
</g>
<defs>
<clipPath id="clip0_75_176">
<rect width="60" height="60" fill="white" transform="translate(0.53833 0.364563)"/>
</clipPath>
</defs>
</svg>
