<svg width="234" height="50" viewBox="0 0 234 50" fill="none" xmlns="http://www.w3.org/2000/svg">
<rect x="64.5835" y="25.1199" width="4.96239" height="15.7894" fill="#CC7541"/>
<rect width="4.96239" height="15.7894" transform="matrix(-1 0 0 1 5.03491 25.1195)" fill="#CC7541"/>
<rect width="4.53152" height="37.7908" transform="matrix(0.324591 -0.945855 0.932903 0.360128 32.8281 15.8075)" fill="#CC7541"/>
<rect width="4.7758" height="36.7836" transform="matrix(-0.324591 -0.945855 -0.932903 0.360128 35.8657 16.0367)" fill="#CC7541"/>
<rect x="26.5383" y="23.3651" width="6.61652" height="7.01752" fill="#CC7541"/>
<rect x="26.5383" y="32.1371" width="6.61652" height="7.01752" fill="#CC7541"/>
<rect x="36.4634" y="32.1371" width="6.61652" height="7.01752" fill="#CC7541"/>
<rect x="36.4634" y="23.3651" width="6.61652" height="7.01752" fill="#CC7541"/>
<rect x="60.7053" y="7.14282" width="7.16792" height="3.30827" fill="#CC7541"/>
<rect x="66.219" y="15.4137" width="8.27068" height="3.30827" transform="rotate(-90 66.219 15.4137)" fill="#CC7541"/>
<path d="M95.5089 9.87338V41.7868H94V9.87338H95.5089ZM105.726 25.3321H96.5435V9.87338H98.0524V23.8165H104.174V9.87338H105.726V25.3321ZM106.718 41.7868V9.87338H108.27V41.7868H106.718ZM96.5435 26.3713H105.726V41.7868H104.174V27.8869H98.0524V41.7868H96.5435V26.3713Z" fill="#CC7541"/>
<path d="M126.729 32.6501C126.729 35.508 126.125 37.6731 124.918 39.1887C124.444 39.7516 123.84 40.4011 122.892 40.8774C121.943 41.3971 120.736 41.7435 119.184 41.7435C116.08 41.7435 114.356 40.3578 113.451 39.1887C112.244 37.6731 111.64 35.508 111.64 32.6501V18.8801C111.64 16.0655 112.244 13.9004 113.451 12.3416C114.356 11.1724 116.08 9.83008 119.184 9.83008C122.288 9.83008 124.013 11.1724 124.918 12.3416C126.125 13.9004 126.729 16.0655 126.729 18.8801V32.6501ZM125.22 18.8801C125.22 13.987 123.151 11.3456 119.184 11.3456C115.218 11.3456 113.149 13.987 113.149 18.8801V32.6501C113.149 37.5432 115.261 40.2279 119.184 40.2279C123.107 40.2279 125.22 37.5432 125.22 32.6501V18.8801ZM124.185 32.6501C124.185 37.0236 122.504 39.1887 119.184 39.1887C115.865 39.1887 114.184 37.0236 114.184 32.6501V18.8801C114.184 16.6285 114.615 14.983 115.477 13.9437C116.253 12.9045 117.503 12.3849 119.184 12.3849C120.866 12.3849 122.116 12.9045 122.892 13.9437C123.754 14.983 124.185 16.6285 124.185 18.8801V32.6501ZM122.676 18.8801C122.676 16.4119 122.116 15.1129 121.383 14.5067C120.65 13.9004 119.745 13.9004 119.184 13.9004C118.538 13.9004 117.719 13.9004 116.986 14.5067C116.253 15.1129 115.692 16.4119 115.692 18.8801V32.6501C115.692 35.2049 116.253 36.4174 116.986 37.0236C117.719 37.6298 118.538 37.6731 119.184 37.6731C119.745 37.6731 120.65 37.6298 121.383 37.0236C122.116 36.4174 122.676 35.2049 122.676 32.6501V18.8801Z" fill="#CC7541"/>
<path d="M145.494 9.87338H149.072V41.7868H147.563V11.4322H146.658L139.113 37.8896L131.526 11.4322H130.62V41.7868H129.112V9.87338H132.69L139.113 32.347L145.494 9.87338ZM133.164 41.7868H131.655V15.5459L139.113 41.6136L146.528 15.5459V41.7868H145.019V26.5013L140.622 41.7868H137.561L133.164 26.5013V41.7868Z" fill="#CC7541"/>
<path d="M153.818 11.4755V40.3145H165.458V41.8301H152.309V9.91668H165.458V11.4755H153.818ZM154.852 12.4715H165.458V14.0303H156.361V23.8165H165.458V25.3754H154.852V12.4715ZM154.852 26.3713H165.458V27.9302H156.361V37.7597H165.458V39.2753H154.852V26.3713Z" fill="#CC7541"/>
<path d="M182.748 32.6068C182.748 38.4525 180.161 41.8301 174.686 41.8301H168.349V40.3145H174.686C176.885 40.3145 178.523 39.665 179.687 38.3226C180.722 37.0236 181.239 35.1183 181.239 32.6068V19.1833C181.239 14.1603 179.127 11.4755 174.686 11.4755H168.349V9.91668H174.686C177.402 9.91668 179.471 10.7827 180.851 12.5148C182.101 14.0303 182.748 16.282 182.748 19.1833V32.6068ZM168.349 12.4715H169.858V39.2753H168.349V12.4715ZM170.892 39.2753V12.4715H174.686C176.626 12.4715 178.049 13.0344 178.868 14.117C179.773 15.1995 180.204 16.8883 180.204 19.1833V32.6068C180.204 34.9018 179.773 36.5906 178.868 37.6731C178.006 38.7557 176.626 39.2753 174.686 39.2753H170.892ZM172.401 14.0303V37.7597H174.686C175.721 37.7597 176.712 37.6731 177.445 36.9803C178.135 36.2875 178.652 34.9884 178.652 32.6068V19.1833C178.652 16.8017 178.135 15.5026 177.445 14.8098C176.712 14.117 175.721 14.0303 174.686 14.0303H172.401Z" fill="#CC7541"/>
<path d="M186.74 11.4755V40.3145H198.38V41.8301H185.231V9.91668H198.38V11.4755H186.74ZM187.775 12.4715H198.38V14.0303H189.284V23.8165H198.38V25.3754H187.775V12.4715ZM187.775 26.3713H198.38V27.9302H189.284V37.7597H198.38V39.2753H187.775V26.3713Z" fill="#CC7541"/>
<path d="M216.36 21.0452H214.808V19.0101C214.808 14.0303 212.782 11.4755 208.816 11.4755C206.833 11.4755 205.324 12.1251 204.289 13.3808C203.298 14.7232 202.78 16.5852 202.78 19.0101V32.7367C202.78 35.8544 203.599 37.803 204.763 38.8856C205.927 39.9681 207.436 40.3145 208.816 40.3145C210.195 40.3145 211.661 39.9681 212.825 38.8856C213.989 37.803 214.808 35.8544 214.808 32.7367V30.6582H216.36V32.7367C216.36 35.5513 215.756 37.7164 214.506 39.2753C213.601 40.4444 211.92 41.8301 208.816 41.8301C207.264 41.8301 206.1 41.4837 205.151 40.964C204.203 40.4877 203.556 39.8382 203.082 39.2753C201.875 37.7597 201.271 35.5946 201.271 32.7367V19.0101C201.271 16.1954 201.875 13.987 203.082 12.4715C203.556 11.9086 204.203 11.259 205.151 10.7394C206.1 10.2631 207.264 9.91668 208.816 9.91668C211.92 9.91668 213.601 11.3023 214.506 12.4715C215.756 14.0303 216.36 16.1954 216.36 19.0101V21.0452ZM213.816 21.0452H212.265V19.0101C212.265 16.5418 211.704 15.2428 211.014 14.6366C210.281 14.0303 209.376 14.0303 208.816 14.0303C208.169 14.0303 207.35 14.0303 206.617 14.6366C205.884 15.2428 205.324 16.5418 205.324 19.0101V32.7367C205.324 34.5987 205.669 35.941 206.315 36.7638C206.617 37.2401 207.264 37.7597 208.816 37.7597C210.368 37.7597 210.971 37.2401 211.316 36.7638C211.963 35.941 212.265 34.5987 212.265 32.7367V30.6582H213.816V32.7367C213.816 37.1102 212.135 39.2753 208.816 39.2753C205.496 39.2753 203.815 37.1102 203.815 32.7367V19.0101C203.815 14.6366 205.496 12.4715 208.816 12.4715C212.135 12.4715 213.816 14.6366 213.816 19.0101V21.0452Z" fill="#CC7541"/>
<path d="M234 32.6501C234 35.508 233.396 37.6731 232.189 39.1887C231.715 39.7516 231.112 40.4011 230.163 40.8774C229.215 41.3971 228.008 41.7435 226.456 41.7435C223.352 41.7435 221.627 40.3578 220.722 39.1887C219.515 37.6731 218.911 35.508 218.911 32.6501V18.8801C218.911 16.0655 219.515 13.9004 220.722 12.3416C221.627 11.1724 223.352 9.83008 226.456 9.83008C229.56 9.83008 231.284 11.1724 232.189 12.3416C233.396 13.9004 234 16.0655 234 18.8801V32.6501ZM232.491 18.8801C232.491 13.987 230.422 11.3456 226.456 11.3456C222.489 11.3456 220.42 13.987 220.42 18.8801V32.6501C220.42 37.5432 222.533 40.2279 226.456 40.2279C230.379 40.2279 232.491 37.5432 232.491 32.6501V18.8801ZM231.456 32.6501C231.456 37.0236 229.775 39.1887 226.456 39.1887C223.136 39.1887 221.455 37.0236 221.455 32.6501V18.8801C221.455 16.6285 221.886 14.983 222.748 13.9437C223.524 12.9045 224.774 12.3849 226.456 12.3849C228.137 12.3849 229.387 12.9045 230.163 13.9437C231.025 14.983 231.456 16.6285 231.456 18.8801V32.6501ZM229.948 18.8801C229.948 16.4119 229.387 15.1129 228.654 14.5067C227.921 13.9004 227.016 13.9004 226.456 13.9004C225.809 13.9004 224.99 13.9004 224.257 14.5067C223.524 15.1129 222.964 16.4119 222.964 18.8801V32.6501C222.964 35.2049 223.524 36.4174 224.257 37.0236C224.99 37.6298 225.809 37.6731 226.456 37.6731C227.016 37.6731 227.921 37.6298 228.654 37.0236C229.387 36.4174 229.948 35.2049 229.948 32.6501V18.8801Z" fill="#CC7541"/>
</svg>
